# xmcd
#
# Track frame offsets: 
#        150
#        17278
#        37589
#        55816
#        59128
#        83673
#        99247
#        113781
#        133350
#        146670
#        166077
#        186381
#
# Disc length: 2638 seconds
#
# Revision: 0
# Processed by: cddbd v1.5.1PL2 Copyright (c) Steve Scherf et al.
# Submitted via: ExactAudioCopy v0.95b2
#
DISCID=990a4c0c
DTITLE=Boogie Monsters, The - Woman Of Mass Destruction
DYEAR=2005
DGENRE=Blues
TTITLE0=Woman Of Mass Destruction
TTITLE1=Dealing With The Devil
TTITLE2=Forever
TTITLE3=Prelude In Swamp Minor
TTITLE4=The More I Drink
TTITLE5=Hypocrisy Blues
TTITLE6=Baby Please Don't Go
TTITLE7=All We Do Is Dance
TTITLE8=Wasted Youth
TTITLE9=Spread Your Wings
TTITLE10=Let's Go Get Stoned
TTITLE11=I Think I'm Drunk
EXTD=
EXTT0=
EXTT1=
EXTT2=
EXTT3=
EXTT4=
EXTT5=
EXTT6=
EXTT7=
EXTT8=
EXTT9=
EXTT10=
EXTT11=
PLAYORDER=
